<svg xmlns="http://www.w3.org/2000/svg" xmlns:xlink="http://www.w3.org/1999/xlink" width="500" zoomAndPan="magnify" viewBox="0 0 375 374.999991" height="500" preserveAspectRatio="xMidYMid meet" version="1.0"><defs><g/><clipPath id="65be78ec5c"><path d="M 135.335938 127 L 196 127 L 196 188.878906 L 135.335938 188.878906 Z M 135.335938 127 " clip-rule="nonzero"/></clipPath><clipPath id="32a8c75bd6"><path d="M 179 98.128906 L 239.585938 98.128906 L 239.585938 188.878906 L 179 188.878906 Z M 179 98.128906 " clip-rule="nonzero"/></clipPath><clipPath id="4348342239"><path d="M 135.335938 182 L 186 182 L 186 188.878906 L 135.335938 188.878906 Z M 135.335938 182 " clip-rule="nonzero"/></clipPath><clipPath id="05c7f0465f"><path d="M 179 111 L 239.585938 111 L 239.585938 188.878906 L 179 188.878906 Z M 179 111 " clip-rule="nonzero"/></clipPath><clipPath id="f68a0a35e0"><path d="M 179 98.128906 L 188 98.128906 L 188 113 L 179 113 Z M 179 98.128906 " clip-rule="nonzero"/></clipPath></defs><g clip-path="url(#65be78ec5c)"><path fill="#38b6ff" d="M 187.460938 127.5625 L 170.566406 127.5625 L 135.335938 188.828125 L 186.019531 188.828125 L 195.910156 171.632812 L 188.898438 159.445312 L 187.460938 156.941406 L 186.019531 159.445312 L 177.574219 174.136719 L 160.679688 174.136719 Z M 187.460938 127.5625 " fill-opacity="1" fill-rule="evenodd"/></g><g clip-path="url(#32a8c75bd6)"><path fill="#83858c" d="M 239.585938 188.828125 L 187.460938 98.179688 L 179.015625 112.871094 L 182.902344 119.632812 L 187.460938 127.5625 L 192.097656 135.621094 L 214.242188 174.136719 L 218.800781 182.066406 L 222.691406 188.828125 Z M 239.585938 188.828125 " fill-opacity="1" fill-rule="evenodd"/></g><path fill="#2493d4" d="M 187.460938 127.5625 L 174.339844 134.519531 L 147 182.066406 L 160.679688 174.136719 Z M 187.460938 127.5625 " fill-opacity="1" fill-rule="evenodd"/><g clip-path="url(#4348342239)"><path fill="#2493d4" d="M 147 182.066406 L 135.335938 188.828125 L 185.507812 188.828125 L 181.855469 182.066406 Z M 147 182.066406 " fill-opacity="1" fill-rule="evenodd"/></g><path fill="#2493d4" d="M 177.574219 174.136719 L 181.855469 182.066406 L 186.246094 174.136719 L 187.976562 171.007812 L 187.460938 156.941406 Z M 177.574219 174.136719 " fill-opacity="1" fill-rule="evenodd"/><g clip-path="url(#05c7f0465f)"><path fill="#68696e" d="M 192.097656 135.621094 L 214.242188 174.136719 L 218.800781 182.066406 L 222.691406 188.828125 L 239.585938 188.828125 L 227.921875 182.066406 L 187.460938 111.703125 L 179.015625 112.871094 L 182.902344 119.632812 L 187.460938 127.5625 Z M 192.097656 135.621094 " fill-opacity="1" fill-rule="evenodd"/></g><g clip-path="url(#f68a0a35e0)"><path fill="#8b8d93" d="M 187.460938 111.703125 L 187.460938 98.179688 L 179.015625 112.871094 Z M 187.460938 111.703125 " fill-opacity="1" fill-rule="evenodd"/></g><g fill="#68696e" fill-opacity="1"><g transform="translate(108.638898, 233.199041)"><g><path d="M 4.78125 0.140625 C 3.757812 0.046875 2.566406 0 1.203125 0 L -0.203125 0 L 7.546875 -21.6875 C 7.890625 -22.65625 8.0625 -23.21875 8.0625 -23.375 C 8.0625 -23.539062 8.054688 -23.644531 8.046875 -23.6875 L 8.0625 -23.71875 C 8.832031 -23.675781 9.648438 -23.65625 10.515625 -23.65625 C 11.222656 -23.65625 12.078125 -23.671875 13.078125 -23.703125 L 13.09375 -23.65625 C 13.070312 -23.613281 13.0625 -23.550781 13.0625 -23.46875 C 13.0625 -23.238281 13.238281 -22.640625 13.59375 -21.671875 L 21.5 0.046875 C 21.257812 0.0351562 20.976562 0.03125 20.65625 0.03125 C 20.65625 0.03125 20.347656 0.0195312 19.734375 0 C 19.429688 0 19.164062 0 18.9375 0 L 16.171875 0 L 14.5 -5.125 L 6.453125 -5.125 Z M 13.109375 -9.390625 L 10.421875 -17.671875 L 7.8125 -9.390625 Z M 13.109375 -9.390625 "/></g></g></g><g fill="#68696e" fill-opacity="1"><g transform="translate(139.000543, 233.199041)"><g><path d="M 16.328125 0.109375 C 15.335938 0.328125 14.1875 0.4375 12.875 0.4375 C 11.570312 0.4375 10.191406 0.15625 8.734375 -0.40625 C 7.285156 -0.976562 6.023438 -1.78125 4.953125 -2.8125 C 2.617188 -5.03125 1.453125 -7.867188 1.453125 -11.328125 C 1.453125 -14.835938 2.582031 -17.816406 4.84375 -20.265625 C 7.207031 -22.828125 10.226562 -24.109375 13.90625 -24.109375 C 17.257812 -24.109375 20.035156 -23.050781 22.234375 -20.9375 C 24.578125 -18.6875 25.75 -15.734375 25.75 -12.078125 C 25.75 -9.148438 24.914062 -6.585938 23.25 -4.390625 C 22.726562 -3.703125 22.148438 -3.085938 21.515625 -2.546875 C 21.941406 -2.421875 22.457031 -2.222656 23.0625 -1.953125 C 24.351562 -1.347656 25.570312 -1.035156 26.71875 -1.015625 L 27.078125 -1.015625 C 27.691406 -1.015625 28.101562 -1.097656 28.3125 -1.265625 L 28.375 -1.203125 L 27.03125 2.1875 C 26.863281 2.695312 26.546875 2.953125 26.078125 2.953125 C 25.398438 2.953125 24.710938 2.804688 24.015625 2.515625 C 23.316406 2.234375 22.691406 1.96875 22.140625 1.71875 C 21.585938 1.476562 21.0625 1.257812 20.5625 1.0625 C 20.0625 0.875 19.585938 0.71875 19.140625 0.59375 C 18.367188 0.375 17.429688 0.210938 16.328125 0.109375 Z M 6.234375 -11.53125 C 6.234375 -10.425781 6.425781 -9.398438 6.8125 -8.453125 C 7.195312 -7.515625 7.722656 -6.703125 8.390625 -6.015625 C 9.835938 -4.554688 11.65625 -3.828125 13.84375 -3.828125 C 15.925781 -3.828125 17.628906 -4.53125 18.953125 -5.9375 C 20.316406 -7.382812 21 -9.300781 21 -11.6875 C 21 -13.9375 20.359375 -15.816406 19.078125 -17.328125 C 17.679688 -18.941406 15.84375 -19.75 13.5625 -19.75 C 11.332031 -19.75 9.53125 -18.929688 8.15625 -17.296875 C 6.875 -15.753906 6.234375 -13.832031 6.234375 -11.53125 Z M 6.234375 -11.53125 "/></g></g></g><g fill="#68696e" fill-opacity="1"><g transform="translate(175.373516, 233.199041)"><g><path d="M 16.546875 -23.75 C 17.285156 -23.6875 17.894531 -23.65625 18.375 -23.65625 L 19.859375 -23.65625 C 20.359375 -23.65625 20.878906 -23.707031 21.421875 -23.8125 L 21.421875 -9.09375 C 21.421875 -6.175781 20.535156 -3.832031 18.765625 -2.0625 C 17.097656 -0.394531 15 0.4375 12.46875 0.4375 C 9.707031 0.4375 7.472656 -0.273438 5.765625 -1.703125 C 3.859375 -3.316406 2.90625 -5.644531 2.90625 -8.6875 L 2.90625 -23.75 C 3.882812 -23.6875 4.804688 -23.65625 5.671875 -23.65625 C 6.546875 -23.65625 7.269531 -23.707031 7.84375 -23.8125 L 7.84375 -8.453125 C 7.84375 -6.953125 8.300781 -5.789062 9.21875 -4.96875 C 10.070312 -4.207031 11.140625 -3.828125 12.421875 -3.828125 C 14.316406 -3.828125 15.578125 -4.800781 16.203125 -6.75 C 16.429688 -7.445312 16.546875 -8.3125 16.546875 -9.34375 Z M 16.546875 -23.75 "/></g></g></g><g fill="#68696e" fill-opacity="1"><g transform="translate(208.776396, 233.199041)"><g><path d="M 5 -2.8125 C 3.914062 -3.84375 3.0625 -5.082031 2.4375 -6.53125 C 1.820312 -7.976562 1.515625 -9.5625 1.515625 -11.28125 C 1.515625 -13.007812 1.800781 -14.644531 2.375 -16.1875 C 2.957031 -17.726562 3.789062 -19.085938 4.875 -20.265625 C 5.957031 -21.441406 7.257812 -22.375 8.78125 -23.0625 C 10.3125 -23.757812 12.03125 -24.109375 13.9375 -24.109375 C 17.207031 -24.109375 19.960938 -23.078125 22.203125 -21.015625 C 24.597656 -18.804688 25.796875 -15.828125 25.796875 -12.078125 C 25.796875 -8.453125 24.5625 -5.4375 22.09375 -3.03125 C 20.570312 -1.539062 18.765625 -0.519531 16.671875 0.03125 C 15.640625 0.300781 14.429688 0.4375 13.046875 0.4375 C 11.671875 0.4375 10.253906 0.15625 8.796875 -0.40625 C 7.347656 -0.976562 6.082031 -1.78125 5 -2.8125 Z M 6.453125 -11.53125 C 6.453125 -10.425781 6.632812 -9.410156 7 -8.484375 C 7.375 -7.554688 7.890625 -6.765625 8.546875 -6.109375 C 9.929688 -4.703125 11.710938 -4 13.890625 -4 C 15.972656 -4 17.640625 -4.671875 18.890625 -6.015625 C 20.171875 -7.398438 20.8125 -9.289062 20.8125 -11.6875 C 20.8125 -13.9375 20.203125 -15.816406 18.984375 -17.328125 C 17.671875 -18.941406 15.867188 -19.75 13.578125 -19.75 C 11.359375 -19.75 9.597656 -18.929688 8.296875 -17.296875 C 7.066406 -15.765625 6.453125 -13.84375 6.453125 -11.53125 Z M 6.453125 -11.53125 "/></g></g></g><g fill="#68696e" fill-opacity="1"><g transform="translate(245.149375, 233.199041)"><g><path d="M 17.34375 -22.34375 L 17.015625 -17.109375 L 16.890625 -17.078125 C 16.003906 -18.398438 14.507812 -19.253906 12.40625 -19.640625 C 11.738281 -19.773438 11.097656 -19.84375 10.484375 -19.84375 C 9.878906 -19.84375 9.359375 -19.785156 8.921875 -19.671875 C 8.484375 -19.566406 8.113281 -19.414062 7.8125 -19.21875 C 7.15625 -18.789062 6.828125 -18.234375 6.828125 -17.546875 C 6.828125 -16.640625 7.113281 -15.960938 7.6875 -15.515625 C 8.394531 -14.972656 9.570312 -14.585938 11.21875 -14.359375 C 12.875 -14.140625 14.195312 -13.84375 15.1875 -13.46875 C 16.1875 -13.09375 17.007812 -12.613281 17.65625 -12.03125 C 18.863281 -10.9375 19.46875 -9.394531 19.46875 -7.40625 C 19.46875 -4.789062 18.484375 -2.78125 16.515625 -1.375 C 14.828125 -0.164062 12.703125 0.4375 10.140625 0.4375 C 8.078125 0.4375 6.035156 0.046875 4.015625 -0.734375 C 3.359375 -0.992188 2.78125 -1.296875 2.28125 -1.640625 L 2.46875 -7.578125 L 2.546875 -7.625 C 4.015625 -5.09375 6.425781 -3.828125 9.78125 -3.828125 C 12.164062 -3.828125 13.742188 -4.398438 14.515625 -5.546875 C 14.773438 -5.941406 14.90625 -6.378906 14.90625 -6.859375 C 14.90625 -7.335938 14.828125 -7.734375 14.671875 -8.046875 C 14.523438 -8.359375 14.269531 -8.628906 13.90625 -8.859375 C 13.21875 -9.304688 12.0625 -9.609375 10.4375 -9.765625 C 8.8125 -9.921875 7.484375 -10.210938 6.453125 -10.640625 C 5.421875 -11.066406 4.597656 -11.59375 3.984375 -12.21875 C 2.867188 -13.363281 2.3125 -14.953125 2.3125 -16.984375 C 2.3125 -19.097656 3.050781 -20.804688 4.53125 -22.109375 C 6.039062 -23.441406 8.070312 -24.109375 10.625 -24.109375 C 13.1875 -24.109375 15.425781 -23.519531 17.34375 -22.34375 Z M 17.34375 -22.34375 "/></g></g></g><g fill="#38b6ff" fill-opacity="1"><g transform="translate(161.964655, 269.842043)"><g><path d="M 11.4375 -1.796875 C 11.476562 -1.328125 11.597656 -0.984375 11.796875 -0.765625 C 11.992188 -0.554688 12.222656 -0.441406 12.484375 -0.421875 L 12.40625 0 C 11.675781 -0.0390625 10.640625 -0.0625 9.296875 -0.0625 C 7.828125 -0.0625 6.753906 -0.0390625 6.078125 0 L 6.15625 -0.421875 C 6.644531 -0.453125 7.023438 -0.515625 7.296875 -0.609375 C 7.566406 -0.703125 7.757812 -0.875 7.875 -1.125 C 7.988281 -1.375 8.03125 -1.742188 8 -2.234375 L 7.8125 -5.75 L 3.171875 -5.75 L 1.28125 -3.0625 C 0.820312 -2.425781 0.59375 -1.898438 0.59375 -1.484375 C 0.59375 -1.140625 0.742188 -0.882812 1.046875 -0.71875 C 1.359375 -0.550781 1.8125 -0.453125 2.40625 -0.421875 L 2.296875 0 C 1.097656 -0.0390625 0.164062 -0.0625 -0.5 -0.0625 C -1.019531 -0.0625 -1.507812 -0.0390625 -1.96875 0 L -1.890625 -0.421875 C -1.515625 -0.523438 -1.148438 -0.738281 -0.796875 -1.0625 C -0.453125 -1.394531 -0.0078125 -1.941406 0.53125 -2.703125 L 9.484375 -15.296875 C 9.609375 -15.285156 9.796875 -15.28125 10.046875 -15.28125 C 10.296875 -15.28125 10.472656 -15.285156 10.578125 -15.296875 Z M 7.78125 -6.171875 L 7.515625 -11.859375 L 3.46875 -6.171875 Z M 7.78125 -6.171875 "/></g></g></g><g fill="#38b6ff" fill-opacity="1"><g transform="translate(177.041025, 269.842043)"><g><path d="M 14.046875 -2.59375 L 14.546875 -2.59375 L 14.453125 -2.3125 C 14.179688 -1.414062 13.785156 -0.753906 13.265625 -0.328125 C 12.753906 0.0859375 12.054688 0.296875 11.171875 0.296875 C 10.304688 0.296875 9.65625 0.113281 9.21875 -0.25 C 8.78125 -0.625 8.5625 -1.132812 8.5625 -1.78125 C 8.5625 -1.96875 8.566406 -2.101562 8.578125 -2.1875 L 8.90625 -4.640625 C 8.9375 -4.984375 8.953125 -5.21875 8.953125 -5.34375 C 8.953125 -6 8.742188 -6.476562 8.328125 -6.78125 C 7.921875 -7.09375 7.191406 -7.265625 6.140625 -7.296875 L 4.8125 -2.28125 C 4.664062 -1.769531 4.59375 -1.414062 4.59375 -1.21875 C 4.59375 -0.945312 4.695312 -0.75 4.90625 -0.625 C 5.125 -0.507812 5.503906 -0.441406 6.046875 -0.421875 L 5.96875 0 C 5.101562 -0.0390625 3.988281 -0.0625 2.625 -0.0625 C 1.03125 -0.0625 -0.144531 -0.0390625 -0.90625 0 L -0.8125 -0.421875 C -0.300781 -0.453125 0.0820312 -0.507812 0.34375 -0.59375 C 0.601562 -0.6875 0.804688 -0.851562 0.953125 -1.09375 C 1.109375 -1.332031 1.253906 -1.726562 1.390625 -2.28125 L 4.203125 -12.921875 C 4.328125 -13.429688 4.390625 -13.765625 4.390625 -13.921875 C 4.390625 -14.210938 4.285156 -14.421875 4.078125 -14.546875 C 3.878906 -14.671875 3.503906 -14.742188 2.953125 -14.765625 L 3.0625 -15.1875 C 3.789062 -15.144531 4.875 -15.125 6.3125 -15.125 L 8.15625 -15.140625 C 8.476562 -15.160156 8.9375 -15.171875 9.53125 -15.171875 C 11.269531 -15.171875 12.554688 -14.925781 13.390625 -14.4375 C 14.234375 -13.945312 14.65625 -13.195312 14.65625 -12.1875 C 14.65625 -10.925781 14.082031 -9.867188 12.9375 -9.015625 C 11.800781 -8.171875 10.269531 -7.640625 8.34375 -7.421875 C 9.644531 -7.296875 10.628906 -7.0625 11.296875 -6.71875 C 11.972656 -6.375 12.3125 -5.78125 12.3125 -4.9375 C 12.3125 -4.851562 12.296875 -4.695312 12.265625 -4.46875 L 11.96875 -2.25 C 11.957031 -2.132812 11.953125 -1.976562 11.953125 -1.78125 C 11.953125 -1.09375 12.179688 -0.75 12.640625 -0.75 C 12.910156 -0.75 13.144531 -0.875 13.34375 -1.125 C 13.539062 -1.375 13.738281 -1.765625 13.9375 -2.296875 Z M 6.21875 -7.6875 L 6.390625 -7.6875 C 7.835938 -7.6875 9 -8.109375 9.875 -8.953125 C 10.757812 -9.804688 11.203125 -10.988281 11.203125 -12.5 C 11.203125 -13.28125 11.035156 -13.851562 10.703125 -14.21875 C 10.378906 -14.582031 9.878906 -14.765625 9.203125 -14.765625 C 8.773438 -14.765625 8.457031 -14.664062 8.25 -14.46875 C 8.039062 -14.28125 7.863281 -13.90625 7.71875 -13.34375 Z M 6.21875 -7.6875 "/></g></g></g><g fill="#38b6ff" fill-opacity="1"><g transform="translate(193.361219, 269.842043)"><g><path d="M 17.8125 -15.125 C 19.175781 -15.125 20.328125 -15.144531 21.265625 -15.1875 L 21.15625 -14.765625 C 20.625 -14.734375 20.234375 -14.671875 19.984375 -14.578125 C 19.734375 -14.492188 19.53125 -14.332031 19.375 -14.09375 C 19.226562 -13.851562 19.082031 -13.460938 18.9375 -12.921875 L 16.109375 -2.28125 C 15.992188 -1.789062 15.9375 -1.445312 15.9375 -1.25 C 15.9375 -0.925781 16.039062 -0.710938 16.25 -0.609375 C 16.457031 -0.515625 16.832031 -0.453125 17.375 -0.421875 L 17.296875 0 C 16.390625 -0.0390625 15.242188 -0.0625 13.859375 -0.0625 C 12.296875 -0.0625 11.148438 -0.0390625 10.421875 0 L 10.515625 -0.421875 C 11.046875 -0.453125 11.4375 -0.507812 11.6875 -0.59375 C 11.9375 -0.6875 12.132812 -0.851562 12.28125 -1.09375 C 12.425781 -1.332031 12.570312 -1.726562 12.71875 -2.28125 L 15.828125 -13.84375 L 6.921875 0.109375 L 6.453125 0.109375 L 4.71875 -13.0625 L 2.015625 -2.765625 C 1.898438 -2.347656 1.84375 -2 1.84375 -1.71875 C 1.84375 -1.300781 1.976562 -0.984375 2.25 -0.765625 C 2.519531 -0.554688 2.976562 -0.441406 3.625 -0.421875 L 3.546875 0 C 3.023438 -0.0390625 2.222656 -0.0625 1.140625 -0.0625 C 0.273438 -0.0625 -0.40625 -0.0390625 -0.90625 0 L -0.796875 -0.421875 C -0.109375 -0.453125 0.398438 -0.660156 0.734375 -1.046875 C 1.078125 -1.429688 1.335938 -2.003906 1.515625 -2.765625 L 4.25 -12.921875 C 4.363281 -13.398438 4.421875 -13.738281 4.421875 -13.9375 C 4.421875 -14.257812 4.316406 -14.46875 4.109375 -14.5625 C 3.898438 -14.664062 3.523438 -14.734375 2.984375 -14.765625 L 3.09375 -15.1875 C 3.726562 -15.144531 4.707031 -15.125 6.03125 -15.125 C 6.769531 -15.125 7.410156 -15.144531 7.953125 -15.1875 L 9.1875 -4.21875 L 16.125 -15.125 Z M 17.8125 -15.125 "/></g></g></g></svg>